# xmcd CD database file
#
# Track frame offsets:
#	150
#	9387
#	19707
#	29967
#	40195
#	50687
#	61967
#	73172
#	84357
#	94625
#
# Disc length: 1388 seconds
#
# Revision: 2
# Processed by: cddbd v1.5.1PL0 Copyright (c) Steve Scherf et al.
# Submitted via: CDex 1.51
#
DISCID=7f056a0a
DTITLE=The Beach Boys/Jan and Dean - The Beach Boys/Jan and Dean
DYEAR=1992
DGENRE=Rock and Roll
TTITLE0=Surfin' Safari
TTITLE1=Surfer Girl
TTITLE2=Surfin'
TTITLE3=Beach Boy Stomp (aka Karate)
TTITLE4=Barbie
TTITLE5=Surf City
TTITLE6=Deadman's Curve
TTITLE7=The Little Old Lady (From Pasadena)
TTITLE8=Drag City
TTITLE9=Sidewalk Surfin'
EXTD=YEAR: 1992
EXTT0=
EXTT1=
EXTT2=
EXTT3=
EXTT4=
EXTT5=
EXTT6=
EXTT7=
EXTT8=
EXTT9=
PLAYORDER=
